<svg width="35" height="36" viewBox="0 0 35 36" fill="none" xmlns="http://www.w3.org/2000/svg">
<path d="M31.7448 13.5705C32.8922 11.6742 30.5905 8.92591 28.4675 10.2863C28.4537 10.3001 28.4331 10.3069 28.4125 10.3207C28.5362 10.2039 28.6461 10.0871 28.7698 9.97026C30.7348 8.10829 28.1927 4.76911 25.8635 6.2051C24.4069 7.10516 22.9709 8.03958 21.5418 8.98775C22.7167 7.8472 23.9053 6.7204 25.1214 5.61421C27.1964 3.73163 24.5512 0.605445 22.2151 1.84905C21.6586 2.14449 21.1158 2.46741 20.5661 2.78347C20.9166 1.01769 18.9721 -0.6519 17.0071 0.255037C11.7372 2.70102 6.8865 5.94401 2.55107 9.8191C0.675357 11.5024 2.58542 14.0583 4.60542 13.8247C3.15569 15.5562 1.75406 17.3288 0.414269 19.1564C-0.939266 21.0047 1.30059 23.1346 3.15569 22.6536C2.73658 23.2102 2.31059 23.7598 1.90522 24.3232C1.21127 25.2714 1.651 26.7623 2.52359 27.4151C3.51297 28.1502 4.75658 28.0403 5.67038 27.2296C5.93147 27.0028 6.19256 26.7761 6.45365 26.5494C6.02079 27.0578 5.57419 27.5456 5.14821 28.054C4.31685 29.0434 4.17943 30.4725 5.14821 31.4413C5.9246 32.2177 7.20943 32.3483 8.12324 31.7711C8.24691 32.362 8.57671 32.9254 9.03017 33.2621C9.95772 33.956 10.9609 33.8598 11.8609 33.2895C11.7922 35.0416 13.7435 36.8486 15.42 35.5775C16.4025 34.8355 17.385 34.0865 18.3675 33.3445C19.0271 34.595 20.7517 35.2889 22.1464 34.0247C24.3313 32.0459 26.6536 30.2733 29.1408 28.6861C30.4119 27.8754 30.4806 26.4669 29.9103 25.4363L32.322 22.7704C33.119 21.891 33.2701 20.5856 32.5075 19.6236C32.3632 19.445 32.1777 19.2801 31.9784 19.1427C32.5075 18.6549 33.0365 18.1671 33.5656 17.6724C35.2489 16.1196 33.6755 13.5018 31.7517 13.5774L31.7448 13.5705Z" fill="#06BDFF"/>
<path d="M9.59343 14.7454H12.4104V23.7873H9.59343V14.7454ZM11.0019 10.252C11.902 10.252 12.6303 10.9803 12.6303 11.8803C12.6303 12.7804 11.902 13.5087 11.0019 13.5087C10.1019 13.5087 9.3667 12.7804 9.3667 11.8803C9.3667 10.9803 10.095 10.252 11.0019 10.252Z" fill="white"/>
<path d="M14.1695 14.7453H16.8628V15.982H16.8972C17.275 15.2675 18.1888 14.5186 19.5561 14.5186C22.4006 14.5186 22.9297 16.3874 22.9297 18.8265V23.7872H20.1195V19.3899C20.1195 18.3387 20.0989 16.992 18.6561 16.992C17.2132 16.992 16.9727 18.1326 16.9727 19.3143V23.7872H14.1626V14.7453H14.1695Z" fill="white"/>
</svg>
