<svg width="35" height="36" viewBox="0 0 35 36" fill="none" xmlns="http://www.w3.org/2000/svg">
<path d="M31.7448 13.5705C32.8922 11.6742 30.5905 8.92591 28.4675 10.2863C28.4469 10.3001 28.4331 10.3069 28.4125 10.3207C28.5362 10.2039 28.6461 10.0871 28.7698 9.97026C30.7348 8.10829 28.1927 4.76911 25.8635 6.2051C24.4069 7.10516 22.9709 8.03958 21.5418 8.98775C22.7167 7.8472 23.9053 6.7204 25.1214 5.61421C27.1964 3.73163 24.5512 0.605445 22.2151 1.84905C21.6586 2.14449 21.1158 2.46741 20.5661 2.78347C20.9166 1.01769 18.9721 -0.6519 17.0071 0.255037C11.7372 2.70102 6.8865 5.94401 2.55107 9.8191C0.675357 11.5024 2.58542 14.0583 4.60542 13.8247C3.15569 15.5562 1.75406 17.3288 0.414269 19.1564C-0.939266 21.0047 1.30059 23.1346 3.15569 22.6536C2.73658 23.2102 2.31059 23.7598 1.90522 24.3232C1.21127 25.2714 1.651 26.7623 2.52359 27.4151C3.51297 28.1502 4.75658 28.0403 5.67038 27.2296C5.93147 27.0028 6.19256 26.7761 6.45365 26.5494C6.02079 27.0578 5.57419 27.5456 5.14821 28.054C4.31685 29.0434 4.17943 30.4725 5.14821 31.4413C5.9246 32.2177 7.20943 32.3483 8.12324 31.7711C8.24691 32.362 8.57671 32.9254 9.03017 33.2621C9.95772 33.956 10.9609 33.8598 11.8609 33.2895C11.7922 35.0416 13.7435 36.8486 15.42 35.5775C16.4025 34.8355 17.385 34.0865 18.3675 33.3445C19.0271 34.595 20.7517 35.2889 22.1464 34.0247C24.3313 32.0459 26.6536 30.2733 29.1408 28.6862C30.4119 27.8754 30.4806 26.4669 29.9103 25.4363L32.322 22.7704C33.119 21.891 33.2701 20.5856 32.5075 19.6236C32.3632 19.445 32.1777 19.2801 31.9784 19.1427C32.5075 18.6549 33.0365 18.1671 33.5656 17.6724C35.2489 16.1196 33.6755 13.5018 31.7517 13.5774L31.7448 13.5705Z" fill="#0B8AE5"/>
<path d="M8.28125 27.319L9.4905 22.7981C8.80343 21.5613 8.44615 20.1734 8.44615 18.7649C8.44615 14.1615 12.1907 10.417 16.7941 10.417C21.3975 10.417 25.142 14.1615 25.142 18.7649C25.142 23.3683 21.3975 27.1129 16.7941 27.1129C15.4131 27.1129 14.0458 26.7625 12.8228 26.1029L8.28125 27.319ZM13.0564 24.4058L13.345 24.5776C14.3962 25.2028 15.5917 25.5326 16.801 25.5326C20.5318 25.5326 23.5686 22.4957 23.5686 18.7649C23.5686 15.0341 20.5318 11.9973 16.801 11.9973C13.0702 11.9973 10.0333 15.0341 10.0333 18.7649C10.0333 19.9948 10.3768 21.2109 11.0227 22.2759L11.2013 22.5645L10.528 25.086L13.0633 24.4058H13.0564Z" fill="white"/>
<path fill-rule="evenodd" clip-rule="evenodd" d="M19.8996 19.9259C19.556 19.7198 19.1094 19.4931 18.7041 19.658C18.3949 19.7817 18.1956 20.2695 17.9964 20.5168C17.8933 20.6474 17.7697 20.6611 17.6116 20.5993C16.4436 20.1321 15.5504 19.3557 14.9114 18.2838C14.8015 18.1189 14.8221 17.9884 14.9527 17.8304C15.145 17.6036 15.3924 17.3425 15.4405 17.0334C15.4954 16.7242 15.3512 16.3669 15.2206 16.0921C15.0557 15.7417 14.8771 15.2401 14.5267 15.0409C14.2037 14.8553 13.7778 14.9584 13.4892 15.192C12.9945 15.5974 12.754 16.2295 12.7609 16.8616C12.7609 17.0402 12.7815 17.2189 12.8296 17.3906C12.9327 17.8029 13.1182 18.1945 13.338 18.5587C13.5029 18.8335 13.6747 19.1083 13.8671 19.3625C14.4923 20.2076 15.2687 20.9428 16.1619 21.4925C16.6085 21.7673 17.0963 22.0078 17.5979 22.1727C18.1613 22.3582 18.6628 22.5506 19.2675 22.4338C19.8996 22.3101 20.5248 21.9185 20.779 21.307C20.8546 21.1283 20.889 20.9222 20.8477 20.7298C20.7584 20.3313 20.2294 20.0977 19.9065 19.9053L19.8996 19.9259Z" fill="white"/>
</svg>
