<svg width="35" height="36" viewBox="0 0 35 36" fill="none" xmlns="http://www.w3.org/2000/svg">
<path d="M31.7448 13.5705C32.8922 11.6742 30.5905 8.92591 28.4675 10.2863C28.4469 10.3001 28.4331 10.3069 28.4125 10.3207C28.5362 10.2039 28.6461 10.0871 28.7698 9.97026C30.7348 8.10829 28.1927 4.76911 25.8635 6.2051C24.4069 7.10516 22.9709 8.03958 21.5418 8.98775C22.7167 7.8472 23.9053 6.7204 25.1214 5.61421C27.1964 3.73163 24.5512 0.605445 22.2151 1.84905C21.6586 2.14449 21.1158 2.46741 20.5661 2.78347C20.9166 1.01769 18.9721 -0.6519 17.0071 0.255037C11.7372 2.70102 6.8865 5.94401 2.55107 9.8191C0.675357 11.5024 2.58542 14.0583 4.60542 13.8247C3.15569 15.5562 1.75406 17.3288 0.414269 19.1564C-0.939266 21.0047 1.30059 23.1346 3.15569 22.6536C2.73658 23.2102 2.31059 23.7598 1.90522 24.3232C1.21127 25.2714 1.651 26.7623 2.52359 27.4151C3.51297 28.1502 4.75658 28.0403 5.67038 27.2296C5.93147 27.0028 6.19256 26.7761 6.45365 26.5494C6.02079 27.0578 5.57419 27.5456 5.14821 28.054C4.31685 29.0434 4.17943 30.4725 5.14821 31.4413C5.9246 32.2177 7.20943 32.3483 8.12324 31.7711C8.24691 32.362 8.57671 32.9254 9.03017 33.2621C9.95772 33.956 10.9609 33.8598 11.8609 33.2895C11.7922 35.0416 13.7435 36.8486 15.42 35.5775C16.4025 34.8355 17.385 34.0865 18.3675 33.3445C19.0271 34.595 20.7517 35.2889 22.1464 34.0247C24.3313 32.0459 26.6536 30.2733 29.1408 28.6862C30.4119 27.8754 30.4806 26.4669 29.9103 25.4363L32.322 22.7704C33.119 21.891 33.2701 20.5856 32.5075 19.6236C32.3632 19.445 32.1777 19.2801 31.9784 19.1427C32.5075 18.6549 33.0365 18.1671 33.5656 17.6724C35.2489 16.1196 33.6755 13.5018 31.7517 13.5774L31.7448 13.5705Z" fill="#0B8AE5"/>
<path d="M17.8247 18.0022L23.2526 11.688H21.9678L17.2544 17.1708L13.4893 11.688H9.14697L14.8428 19.9741L9.14697 26.5906H10.4318L15.4131 20.8055L19.3912 26.5906H23.7335L17.8247 17.9953V18.0022ZM16.0589 20.0565L15.4818 19.2321L10.8921 12.6636H12.8709L16.5742 17.961L17.1514 18.7855L21.9678 25.6768H19.989L16.0589 20.0565Z" fill="white"/>
</svg>
